<mxfile host="app.diagrams.net" agent="Mozilla/5.0 (Windows NT 10.0; Win64; x64) AppleWebKit/537.36 (KHTML, like Gecko) Chrome/131.0.0.0 Safari/537.36 Edg/131.0.0.0" version="24.9.2">
  <diagram name="Page-1" id="ggesSEdFQ0AZUqOPYy-V">
    <mxGraphModel dx="2605" dy="1333" grid="1" gridSize="10" guides="1" tooltips="1" connect="1" arrows="1" fold="1" page="1" pageScale="1" pageWidth="850" pageHeight="1100" math="0" shadow="0">
      <root>
        <mxCell id="0" />
        <mxCell id="1" parent="0" />
        <mxCell id="fNeyltrX6j8qFd6EXgrD-12" value="" style="edgeStyle=orthogonalEdgeStyle;rounded=0;orthogonalLoop=1;jettySize=auto;html=1;" edge="1" parent="1" source="fNeyltrX6j8qFd6EXgrD-10" target="fNeyltrX6j8qFd6EXgrD-11">
          <mxGeometry relative="1" as="geometry" />
        </mxCell>
        <mxCell id="fNeyltrX6j8qFd6EXgrD-10" value="Start" style="ellipse;whiteSpace=wrap;html=1;" vertex="1" parent="1">
          <mxGeometry x="297" y="37" width="120" height="80" as="geometry" />
        </mxCell>
        <mxCell id="fNeyltrX6j8qFd6EXgrD-14" value="" style="edgeStyle=orthogonalEdgeStyle;rounded=0;orthogonalLoop=1;jettySize=auto;html=1;" edge="1" parent="1" source="fNeyltrX6j8qFd6EXgrD-11" target="fNeyltrX6j8qFd6EXgrD-13">
          <mxGeometry relative="1" as="geometry" />
        </mxCell>
        <mxCell id="fNeyltrX6j8qFd6EXgrD-11" value="Benutzer meldet sich an" style="whiteSpace=wrap;html=1;" vertex="1" parent="1">
          <mxGeometry x="257" y="187" width="200" height="30" as="geometry" />
        </mxCell>
        <mxCell id="fNeyltrX6j8qFd6EXgrD-16" value="" style="edgeStyle=orthogonalEdgeStyle;rounded=0;orthogonalLoop=1;jettySize=auto;html=1;" edge="1" parent="1" source="fNeyltrX6j8qFd6EXgrD-13" target="fNeyltrX6j8qFd6EXgrD-15">
          <mxGeometry relative="1" as="geometry" />
        </mxCell>
        <mxCell id="fNeyltrX6j8qFd6EXgrD-13" value="Filterkriterien auswählen (Breite, Stromkapazität, Wasseranschluss)" style="whiteSpace=wrap;html=1;" vertex="1" parent="1">
          <mxGeometry x="257" y="297" width="200" height="30" as="geometry" />
        </mxCell>
        <mxCell id="fNeyltrX6j8qFd6EXgrD-18" value="" style="edgeStyle=orthogonalEdgeStyle;rounded=0;orthogonalLoop=1;jettySize=auto;html=1;" edge="1" parent="1" source="fNeyltrX6j8qFd6EXgrD-15" target="fNeyltrX6j8qFd6EXgrD-17">
          <mxGeometry relative="1" as="geometry" />
        </mxCell>
        <mxCell id="fNeyltrX6j8qFd6EXgrD-15" value="System zeigt verfügbare Stellplätze" style="whiteSpace=wrap;html=1;" vertex="1" parent="1">
          <mxGeometry x="217" y="407" width="280" height="30" as="geometry" />
        </mxCell>
        <mxCell id="fNeyltrX6j8qFd6EXgrD-20" value="" style="edgeStyle=orthogonalEdgeStyle;rounded=0;orthogonalLoop=1;jettySize=auto;html=1;" edge="1" parent="1" source="fNeyltrX6j8qFd6EXgrD-17" target="fNeyltrX6j8qFd6EXgrD-19">
          <mxGeometry relative="1" as="geometry" />
        </mxCell>
        <mxCell id="fNeyltrX6j8qFd6EXgrD-17" value="Stellplatz auswählen" style="whiteSpace=wrap;html=1;" vertex="1" parent="1">
          <mxGeometry x="287" y="517" width="140" height="30" as="geometry" />
        </mxCell>
        <mxCell id="fNeyltrX6j8qFd6EXgrD-22" value="" style="edgeStyle=orthogonalEdgeStyle;rounded=0;orthogonalLoop=1;jettySize=auto;html=1;" edge="1" parent="1" source="fNeyltrX6j8qFd6EXgrD-19" target="fNeyltrX6j8qFd6EXgrD-21">
          <mxGeometry relative="1" as="geometry" />
        </mxCell>
        <mxCell id="fNeyltrX6j8qFd6EXgrD-24" value="" style="edgeStyle=orthogonalEdgeStyle;rounded=0;orthogonalLoop=1;jettySize=auto;html=1;" edge="1" parent="1" source="fNeyltrX6j8qFd6EXgrD-19" target="fNeyltrX6j8qFd6EXgrD-23">
          <mxGeometry relative="1" as="geometry" />
        </mxCell>
        <mxCell id="fNeyltrX6j8qFd6EXgrD-19" value="Reservieren oder Buchen?" style="rhombus;whiteSpace=wrap;html=1;" vertex="1" parent="1">
          <mxGeometry x="267" y="602" width="180" height="80" as="geometry" />
        </mxCell>
        <mxCell id="fNeyltrX6j8qFd6EXgrD-35" value="" style="edgeStyle=orthogonalEdgeStyle;rounded=0;orthogonalLoop=1;jettySize=auto;html=1;entryX=0;entryY=0.5;entryDx=0;entryDy=0;" edge="1" parent="1" source="fNeyltrX6j8qFd6EXgrD-21" target="fNeyltrX6j8qFd6EXgrD-32">
          <mxGeometry relative="1" as="geometry">
            <mxPoint x="120" y="1080" as="targetPoint" />
          </mxGeometry>
        </mxCell>
        <mxCell id="fNeyltrX6j8qFd6EXgrD-21" value="Reservierung speichern" style="whiteSpace=wrap;html=1;" vertex="1" parent="1">
          <mxGeometry x="40" y="750" width="160" height="30" as="geometry" />
        </mxCell>
        <mxCell id="fNeyltrX6j8qFd6EXgrD-28" value="" style="edgeStyle=orthogonalEdgeStyle;rounded=0;orthogonalLoop=1;jettySize=auto;html=1;" edge="1" parent="1" source="fNeyltrX6j8qFd6EXgrD-23" target="fNeyltrX6j8qFd6EXgrD-27">
          <mxGeometry relative="1" as="geometry" />
        </mxCell>
        <mxCell id="fNeyltrX6j8qFd6EXgrD-23" value="Buchung speichern" style="whiteSpace=wrap;html=1;" vertex="1" parent="1">
          <mxGeometry x="520" y="750" width="160" height="30" as="geometry" />
        </mxCell>
        <mxCell id="fNeyltrX6j8qFd6EXgrD-25" value="Reservieren" style="text;html=1;align=center;verticalAlign=middle;resizable=0;points=[];autosize=1;strokeColor=none;fillColor=none;" vertex="1" parent="1">
          <mxGeometry x="110" y="620" width="90" height="30" as="geometry" />
        </mxCell>
        <mxCell id="fNeyltrX6j8qFd6EXgrD-26" value="Buchen" style="text;html=1;align=center;verticalAlign=middle;resizable=0;points=[];autosize=1;strokeColor=none;fillColor=none;" vertex="1" parent="1">
          <mxGeometry x="512" y="620" width="60" height="30" as="geometry" />
        </mxCell>
        <mxCell id="fNeyltrX6j8qFd6EXgrD-30" value="" style="edgeStyle=orthogonalEdgeStyle;rounded=0;orthogonalLoop=1;jettySize=auto;html=1;" edge="1" parent="1" source="fNeyltrX6j8qFd6EXgrD-27" target="fNeyltrX6j8qFd6EXgrD-29">
          <mxGeometry relative="1" as="geometry" />
        </mxCell>
        <mxCell id="fNeyltrX6j8qFd6EXgrD-37" value="" style="edgeStyle=orthogonalEdgeStyle;rounded=0;orthogonalLoop=1;jettySize=auto;html=1;" edge="1" parent="1" source="fNeyltrX6j8qFd6EXgrD-27" target="fNeyltrX6j8qFd6EXgrD-36">
          <mxGeometry relative="1" as="geometry" />
        </mxCell>
        <mxCell id="fNeyltrX6j8qFd6EXgrD-27" value="Verfügbarkeit prüfen" style="whiteSpace=wrap;html=1;" vertex="1" parent="1">
          <mxGeometry x="520" y="890" width="160" height="30" as="geometry" />
        </mxCell>
        <mxCell id="fNeyltrX6j8qFd6EXgrD-33" value="" style="edgeStyle=orthogonalEdgeStyle;rounded=0;orthogonalLoop=1;jettySize=auto;html=1;" edge="1" parent="1" source="fNeyltrX6j8qFd6EXgrD-29" target="fNeyltrX6j8qFd6EXgrD-32">
          <mxGeometry relative="1" as="geometry" />
        </mxCell>
        <mxCell id="fNeyltrX6j8qFd6EXgrD-29" value="Buchungsbestätigung senden" style="whiteSpace=wrap;html=1;" vertex="1" parent="1">
          <mxGeometry x="480" y="1000" width="240" height="30" as="geometry" />
        </mxCell>
        <mxCell id="fNeyltrX6j8qFd6EXgrD-31" value="Verfügbar" style="text;html=1;align=center;verticalAlign=middle;resizable=0;points=[];autosize=1;strokeColor=none;fillColor=none;" vertex="1" parent="1">
          <mxGeometry x="580" y="938" width="80" height="30" as="geometry" />
        </mxCell>
        <mxCell id="fNeyltrX6j8qFd6EXgrD-32" value="Ende" style="ellipse;whiteSpace=wrap;html=1;" vertex="1" parent="1">
          <mxGeometry x="560" y="1085" width="80" height="80" as="geometry" />
        </mxCell>
        <mxCell id="fNeyltrX6j8qFd6EXgrD-40" value="" style="edgeStyle=orthogonalEdgeStyle;rounded=0;orthogonalLoop=1;jettySize=auto;html=1;" edge="1" parent="1" source="fNeyltrX6j8qFd6EXgrD-36" target="fNeyltrX6j8qFd6EXgrD-39">
          <mxGeometry relative="1" as="geometry" />
        </mxCell>
        <mxCell id="fNeyltrX6j8qFd6EXgrD-36" value="Verfügbarkeit prüfen" style="whiteSpace=wrap;html=1;" vertex="1" parent="1">
          <mxGeometry x="790" y="890" width="160" height="30" as="geometry" />
        </mxCell>
        <mxCell id="fNeyltrX6j8qFd6EXgrD-38" value="nicht verfügbar" style="text;html=1;align=center;verticalAlign=middle;resizable=0;points=[];autosize=1;strokeColor=none;fillColor=none;" vertex="1" parent="1">
          <mxGeometry x="680" y="880" width="100" height="30" as="geometry" />
        </mxCell>
        <mxCell id="fNeyltrX6j8qFd6EXgrD-44" value="" style="edgeStyle=orthogonalEdgeStyle;rounded=0;orthogonalLoop=1;jettySize=auto;html=1;entryX=1;entryY=0.5;entryDx=0;entryDy=0;" edge="1" parent="1" source="fNeyltrX6j8qFd6EXgrD-39" target="fNeyltrX6j8qFd6EXgrD-32">
          <mxGeometry relative="1" as="geometry">
            <mxPoint x="740" y="1130" as="targetPoint" />
            <Array as="points">
              <mxPoint x="1165" y="1125" />
            </Array>
          </mxGeometry>
        </mxCell>
        <mxCell id="fNeyltrX6j8qFd6EXgrD-39" value="Meldung an Benutzer bei Nichtverfügbarkeit" style="whiteSpace=wrap;html=1;" vertex="1" parent="1">
          <mxGeometry x="1030" y="890" width="270" height="30" as="geometry" />
        </mxCell>
      </root>
    </mxGraphModel>
  </diagram>
</mxfile>
